<?xml version="1.0" standalone="no"?><!DOCTYPE svg PUBLIC "-//W3C//DTD SVG 1.1//EN" "http://www.w3.org/Graphics/SVG/1.1/DTD/svg11.dtd"><svg t="1506649809336" class="icon" style="" viewBox="0 0 1024 1024" version="1.1" xmlns="http://www.w3.org/2000/svg" p-id="8672" xmlns:xlink="http://www.w3.org/1999/xlink" width="24" height="24"><defs><style type="text/css"></style></defs><path d="M833 676.5v-600H67v600h99.9l74.2 144.2 184.2-144.2H833z m-438.5-39.4L257.9 744l-46.5-90.4-14-27.1H117v-500h666v500H408.1l-13.6 10.6zM957 193.3v610h-99.9l-74.2 144.2-184.2-144.2H319.6l70-50H615.9l13.6 10.6 136.6 106.9 46.5-90.4 14-27.1H907v-510h-44.9v-50H957zM233.8 343.6h50v50h-50v-50z m127.5 0h50v50h-50v-50z m177.4 50h-50v-50h50v50z m127.5 0h-50v-50h50v50z" fill="#656565" p-id="8673"></path></svg>